<?xml version="1.0" standalone="no"?>
<!DOCTYPE svg PUBLIC "-//W3C//DTD SVG 20010904//EN"
 "http://www.w3.org/TR/2001/REC-SVG-20010904/DTD/svg10.dtd">
<svg version="1.0" xmlns="http://www.w3.org/2000/svg"
 width="1316.000000pt" height="503.000000pt" viewBox="0 0 1316.000000 503.000000"
 preserveAspectRatio="xMidYMid meet">

<g transform="translate(0.000000,503.000000) scale(0.100000,-0.100000)"
fill="#000000" stroke="none">
<path d="M2288 4797 c-92 -50 -167 -95 -165 -100 5 -17 243 -347 250 -347 4 0
11 10 16 23 5 12 56 117 114 234 l106 212 -60 35 c-33 20 -68 36 -77 36 -9 0
-92 -42 -184 -93z"/>
<path d="M2545 4534 c-66 -136 -121 -249 -122 -253 -2 -3 53 -85 122 -181 69
-96 218 -306 333 -467 114 -161 209 -292 212 -292 6 -1 48 70 120 199 20 36
116 205 213 376 97 171 179 318 182 326 6 14 -10 24 -230 148 -72 41 -539 302
-595 333 -30 16 -64 36 -75 44 -11 7 -24 13 -30 13 -6 0 -65 -111 -130 -246z"/>
<path d="M1870 4566 c-252 -141 -1047 -584 -1121 -625 -36 -20 -143 -79 -237
-131 l-171 -95 -3 -114 c-2 -88 0 -119 12 -135 17 -24 118 -144 585 -691 187
-219 358 -419 380 -446 22 -26 44 -47 49 -46 4 2 224 446 488 987 263 542 482
987 484 990 3 3 15 -6 26 -20 19 -24 20 -24 34 -5 19 26 18 48 -5 76 l-19 24
-13 -28 c-7 -15 -16 -27 -20 -27 -4 0 -69 86 -144 190 -75 105 -141 190 -148
189 -7 0 -86 -42 -177 -93z"/>
<path d="M3663 4197 c-6 -13 -127 -227 -268 -476 l-256 -452 23 -32 c28 -40
1070 -1501 1073 -1505 1 -1 49 80 105 180 57 101 132 232 167 293 l63 109 0
702 c0 549 -3 704 -12 711 -7 6 -44 27 -83 48 -60 32 -147 81 -365 203 -25 14
-132 74 -238 134 -106 59 -194 108 -196 108 -1 0 -8 -11 -13 -23z"/>
<path d="M2357 4149 c-40 -88 -936 -1922 -943 -1928 -3 -3 -14 4 -24 17 -23
28 -25 28 -40 -8 -11 -26 -10 -33 5 -50 24 -26 29 -25 44 7 l13 28 31 -35 c18
-20 108 -126 202 -235 327 -386 387 -455 395 -455 5 0 22 24 38 53 166 294
579 1022 813 1433 81 143 151 268 155 277 4 12 -86 147 -316 470 -178 248
-329 458 -336 466 -11 12 -17 5 -37 -40z"/>
<path d="M340 2349 l5 -1011 169 -94 c93 -52 194 -108 223 -125 l53 -31 84
174 c46 95 143 295 216 443 237 483 242 495 228 513 -13 17 -338 398 -747 877
-122 143 -225 261 -229 263 -4 1 -5 -453 -2 -1009z"/>
<path d="M3076 3299 c-16 -28 -16 -31 1 -59 21 -37 27 -37 41 -5 16 35 15 43
-6 70 l-19 23 -17 -29z"/>
<path d="M5058 2658 c-3 -598 -4 -614 -24 -648 -44 -75 -127 -99 -224 -65 -23
8 -46 15 -51 15 -5 0 -9 -22 -9 -50 l0 -49 57 -17 c141 -41 277 13 330 131 17
37 18 88 21 668 l3 627 -50 0 -50 0 -3 -612z"/>
<path d="M7090 3026 c0 -134 -3 -251 -6 -260 -5 -13 -20 -8 -87 27 -81 42 -83
42 -187 42 -98 0 -110 -2 -177 -34 -98 -46 -171 -122 -226 -238 l-42 -88 0
-140 c0 -122 3 -147 23 -199 36 -92 69 -142 135 -201 83 -76 147 -100 262
-100 133 0 199 36 292 161 l22 29 0 -87 1 -88 40 0 40 0 0 710 0 710 -45 0
-45 0 0 -244z m-123 -315 c109 -51 110 -52 117 -211 8 -180 -5 -340 -34 -404
-73 -162 -259 -223 -406 -135 -87 53 -141 132 -169 251 -20 85 -19 140 5 232
26 102 62 167 127 226 68 62 117 80 213 77 61 -2 89 -9 147 -36z"/>
<path d="M10464 3257 c-2 -7 -3 -325 -2 -707 l3 -695 48 -3 47 -3 0 277 0 277
112 114 c62 62 115 113 119 113 3 0 33 -39 66 -87 32 -49 84 -124 114 -168
197 -284 334 -483 348 -502 13 -19 26 -22 73 -23 31 0 59 3 61 8 3 4 -55 90
-127 192 -328 459 -456 643 -456 654 0 7 122 133 270 280 149 148 270 272 270
277 0 5 -28 9 -62 9 l-62 0 -354 -360 c-195 -198 -358 -357 -363 -354 -5 3 -9
161 -9 360 l0 354 -45 0 c-28 0 -48 -5 -51 -13z"/>
<path d="M2965 2963 c-71 -126 -220 -388 -330 -583 -388 -683 -537 -945 -541
-949 -3 -3 -14 5 -26 17 l-22 22 -21 -26 -21 -27 -55 64 c-31 35 -163 190
-294 344 -131 154 -246 289 -256 299 -18 19 -21 14 -132 -215 -63 -129 -183
-373 -266 -543 -83 -170 -150 -310 -149 -311 24 -15 308 -175 613 -345 22 -12
54 -31 72 -41 l32 -20 15 23 c13 21 238 417 363 641 30 53 57 97 60 97 3 0 13
-10 24 -22 l19 -23 21 27 20 27 173 -202 c95 -111 284 -332 420 -492 137 -159
252 -289 256 -288 11 3 568 311 709 392 l114 66 214 375 c117 206 214 379 216
385 2 5 15 -3 28 -18 l25 -29 13 26 c8 14 17 26 21 26 4 0 44 -53 90 -117 164
-231 159 -224 180 -213 19 10 20 24 20 428 l0 417 -48 -82 c-26 -45 -90 -159
-142 -252 -52 -94 -98 -170 -101 -171 -3 0 -12 11 -19 25 -7 14 -16 25 -20 25
-4 0 -13 -11 -20 -25 -7 -14 -16 -25 -20 -25 -3 0 -251 342 -549 760 -299 418
-546 760 -550 760 -4 0 -65 -102 -136 -227z"/>
<path d="M8393 3103 c-10 -3 -13 -42 -13 -143 l0 -139 -77 -3 c-66 -3 -78 -6
-81 -21 -5 -27 7 -69 18 -62 5 3 39 3 75 -1 l65 -7 0 -362 c0 -294 3 -371 15
-412 26 -88 97 -129 208 -121 34 3 79 12 100 21 35 15 37 19 37 60 0 24 -3 46
-6 49 -3 3 -24 -5 -47 -18 -72 -41 -150 -32 -184 21 -23 34 -23 38 -23 400 l0
365 108 0 c145 0 154 3 150 49 l-3 36 -127 3 -128 3 0 138 0 139 -31 6 c-35 7
-38 7 -56 -1z"/>
<path d="M9075 2822 c-27 -11 -78 -33 -112 -51 l-63 -31 0 -50 c0 -28 2 -50 4
-50 2 0 30 16 62 35 136 82 295 98 390 40 72 -45 107 -108 108 -193 l1 -67
-65 -8 c-281 -33 -431 -79 -505 -154 -126 -128 -71 -347 107 -429 56 -26 74
-29 158 -29 126 0 169 17 246 97 l59 61 5 -45 c10 -83 42 -108 141 -108 21 0
49 4 63 10 23 8 26 15 26 56 0 40 -2 45 -17 38 -10 -4 -34 -9 -55 -12 -61 -7
-63 1 -64 348 -1 293 -2 307 -24 364 -29 75 -86 137 -153 167 -73 32 -239 38
-312 11z m393 -506 c5 -71 -16 -179 -45 -234 -59 -112 -154 -168 -273 -159
-101 6 -171 53 -204 137 -37 92 4 173 116 228 77 39 283 82 368 79 35 -2 35
-3 38 -51z"/>
<path d="M11807 2816 c-63 -23 -116 -64 -146 -113 -28 -44 -30 -46 -35 -23 -3
14 -4 50 -3 80 l2 55 -43 3 -42 3 2 -483 3 -483 45 0 45 0 5 330 c5 358 6 359
66 447 57 81 157 119 251 95 29 -8 55 -12 58 -9 12 12 4 80 -10 92 -23 19
-153 23 -198 6z"/>
<path d="M5442 2443 l3 -378 28 -56 c35 -73 98 -131 173 -159 48 -18 74 -21
139 -18 105 6 161 31 235 108 32 33 61 60 64 60 3 0 6 -34 6 -76 l0 -75 43 3
42 3 0 480 0 480 -47 3 -48 3 0 -288 c0 -304 -6 -356 -50 -448 -27 -55 -96
-124 -148 -146 -50 -22 -141 -25 -193 -8 -42 14 -95 63 -119 110 -30 58 -40
175 -40 485 l0 294 -46 0 -45 0 3 -377z"/>
<path d="M7333 2803 c5 -20 319 -757 367 -864 17 -36 30 -73 30 -82 0 -27 -88
-254 -115 -297 -14 -22 -36 -47 -50 -56 -33 -22 -97 -29 -136 -15 -39 14 -51
2 -43 -44 7 -42 16 -48 81 -53 151 -11 223 60 312 306 16 42 112 304 214 582
102 278 187 512 189 520 2 12 -8 15 -47 15 -47 0 -50 -1 -62 -35 -14 -40 -143
-406 -225 -640 -30 -85 -58 -155 -63 -155 -7 0 -154 347 -329 775 l-22 55 -53
3 c-48 3 -53 1 -48 -15z"/>
<path d="M12100 2775 l0 -45 300 0 c204 0 300 -3 300 -11 0 -10 -93 -127 -241
-304 -37 -44 -142 -172 -233 -285 -153 -188 -167 -208 -164 -240 l3 -35 408
-3 407 -2 0 40 c0 25 -5 40 -12 40 -7 1 -143 1 -303 1 -277 -1 -355 3 -355 18
0 6 380 472 562 690 74 88 79 97 76 135 l-3 41 -372 3 -373 2 0 -45z"/>
<path d="M4065 1288 c-93 -166 -172 -306 -174 -311 -6 -15 23 -2 129 58 52 29
172 96 265 148 100 55 170 100 169 109 -1 16 -202 298 -212 298 -4 -1 -83
-136 -177 -302z"/>
<path d="M2047 1343 c-158 -277 -398 -704 -402 -715 -5 -12 31 -36 147 -101
84 -46 263 -147 398 -223 135 -76 252 -137 260 -136 12 1 406 215 418 227 2 2
-88 111 -200 243 -111 131 -293 345 -403 475 -110 129 -203 236 -207 236 -4 1
-9 -2 -11 -6z"/>
</g>
</svg>
