<?xml version="1.0" standalone="no"?>
<!DOCTYPE svg PUBLIC "-//W3C//DTD SVG 20010904//EN"
 "http://www.w3.org/TR/2001/REC-SVG-20010904/DTD/svg10.dtd">
<svg version="1.0" xmlns="http://www.w3.org/2000/svg"
 width="591.000000pt" height="590.000000pt" viewBox="0 0 591.000000 590.000000"
 preserveAspectRatio="xMidYMid meet">

<g transform="translate(0.000000,590.000000) scale(0.100000,-0.100000)"
fill="#000000" stroke="none">
<path d="M2805 5629 c-104 -61 -195 -114 -202 -117 -8 -5 39 -82 143 -232 85
-124 157 -225 161 -225 7 0 273 565 273 580 0 10 -160 105 -176 105 -5 0 -94
-50 -199 -111z"/>
<path d="M3125 5328 c-70 -150 -137 -292 -148 -314 l-20 -41 218 -319 c120
-176 288 -420 373 -543 152 -220 155 -225 143 -255 -22 -54 -22 -60 1 -89 l23
-28 19 36 c19 35 19 36 -2 65 -12 16 -22 34 -22 40 0 9 493 921 575 1066 l24
40 -497 289 c-273 159 -511 297 -528 307 l-31 18 -128 -272z"/>
<path d="M1567 4908 l-947 -553 0 -137 0 -137 347 -423 c192 -234 454 -553
583 -711 129 -157 238 -283 241 -279 4 4 237 500 519 1102 282 602 524 1117
537 1144 l25 49 21 -33 c19 -31 21 -31 34 -14 25 35 26 62 2 95 l-22 32 -15
-37 c-8 -20 -18 -36 -22 -36 -4 0 -64 82 -132 183 -191 279 -211 307 -217 307
-4 0 -433 -249 -954 -552z"/>
<path d="M4072 4388 c-165 -304 -304 -560 -307 -569 -6 -16 109 -186 1043
-1544 161 -234 164 -240 153 -270 -23 -54 -22 -60 0 -89 l22 -28 20 37 c19 37
19 38 -2 66 -12 15 -21 33 -21 40 0 6 92 180 205 387 l205 375 0 781 0 781
-497 290 c-273 160 -502 291 -508 293 -7 2 -147 -246 -313 -550z"/>
<path d="M2515 4028 c-219 -469 -459 -981 -533 -1138 -73 -156 -135 -287 -138
-290 -3 -3 -16 7 -30 23 l-23 27 -16 -29 c-19 -39 -19 -43 7 -76 l21 -27 20
37 c15 31 21 35 31 24 7 -8 163 -197 346 -421 183 -225 335 -408 339 -408 5 1
1067 1942 1110 2029 13 27 10 32 -97 187 -60 87 -225 328 -366 534 -142 206
-261 376 -264 378 -4 1 -187 -382 -407 -850z"/>
<path d="M620 2760 l1 -1195 255 -148 c141 -82 260 -145 264 -140 4 4 134 280
290 613 156 333 292 624 303 647 l20 41 -269 329 c-149 180 -397 483 -553 673
-156 190 -289 352 -297 360 -12 12 -14 -159 -14 -1180z"/>
<path d="M3155 2707 c-306 -562 -559 -1024 -562 -1027 -2 -2 -15 9 -28 25 -13
17 -25 28 -27 25 -2 -3 -12 -18 -22 -33 l-17 -28 -102 124 c-56 68 -212 258
-346 421 -134 163 -244 296 -246 294 -12 -13 -595 -1272 -593 -1279 2 -5 181
-113 398 -239 277 -162 396 -226 401 -218 4 7 113 208 243 447 130 239 238
437 241 439 3 3 18 -7 34 -22 l28 -27 13 30 c7 17 16 31 20 31 4 0 97 -109
207 -242 499 -608 748 -912 754 -921 3 -5 198 103 432 240 l427 248 260 478
c143 262 260 480 260 483 0 3 -174 258 -387 567 -213 309 -474 690 -582 847
-107 157 -207 302 -222 322 l-27 38 -557 -1023z"/>
<path d="M5206 2296 c-97 -178 -176 -329 -176 -334 0 -12 276 -419 290 -427 4
-3 22 3 39 12 l31 18 0 528 c0 290 -2 527 -4 527 -2 0 -83 -146 -180 -324z"/>
<path d="M4952 1828 c-16 -29 -98 -179 -182 -333 -84 -154 -170 -313 -192
-354 -36 -66 -38 -72 -17 -58 13 8 173 102 354 207 182 106 332 193 334 195 3
3 -104 162 -230 343 l-37 53 -30 -53z"/>
<path d="M2317 1167 c-131 -239 -237 -438 -237 -443 0 -7 846 -507 910 -538
14 -6 70 22 236 119 121 70 229 134 242 141 22 15 22 15 -70 128 -628 768
-813 994 -828 1009 -16 17 -28 -3 -253 -416z"/>
</g>
</svg>
