<?xml version="1.0" standalone="no"?>
<!DOCTYPE svg PUBLIC "-//W3C//DTD SVG 20010904//EN"
 "http://www.w3.org/TR/2001/REC-SVG-20010904/DTD/svg10.dtd">
<svg version="1.0" xmlns="http://www.w3.org/2000/svg"
 width="751.000000pt" height="751.000000pt" viewBox="0 0 751.000000 751.000000"
 preserveAspectRatio="xMidYMid meet">
<metadata>
Created by potrace 1.11, written by Peter Selinger 2001-2013
</metadata>
<g transform="translate(0.000000,751.000000) scale(0.100000,-0.100000)"
fill="#000000" stroke="none">
<path d="M3624 6517 c-198 -114 -304 -178 -304 -183 0 -3 70 -107 156 -231
157 -229 162 -240 135 -283 -7 -10 -13 -11 -19 -5 -5 6 -80 114 -167 240 -86
127 -161 234 -165 238 -5 6 -1327 -753 -1520 -873 -8 -5 -102 -60 -207 -122
l-193 -112 0 -136 0 -136 123 -149 c68 -83 331 -403 586 -713 l462 -563 -11
-35 c-7 -19 -16 -32 -21 -29 -5 3 -142 169 -306 368 -163 199 -378 461 -478
582 -99 121 -218 266 -264 323 -46 56 -85 102 -87 102 -2 0 -4 -541 -4 -1202
l1 -1203 253 -147 c139 -81 259 -148 265 -150 7 -2 75 131 162 317 362 771
461 980 464 983 1 2 12 -10 24 -26 l21 -30 -301 -642 c-166 -353 -297 -645
-293 -649 21 -19 777 -454 790 -455 10 -1 96 148 255 439 132 242 243 442 247
446 4 4 17 -5 29 -20 l21 -27 -239 -439 c-131 -241 -239 -441 -239 -444 0 -5
632 -377 880 -518 l56 -32 239 140 c133 77 239 146 239 153 -1 7 -205 263
-454 567 -249 305 -457 559 -462 566 -6 8 -3 23 8 42 l17 29 71 -86 c40 -48
255 -311 480 -585 225 -273 413 -497 417 -497 16 0 823 472 845 494 12 12 135
230 274 486 139 256 253 466 254 467 1 1 11 -13 22 -30 l21 -32 -164 -300
c-90 -165 -192 -351 -225 -414 l-61 -115 34 21 c19 12 144 85 279 164 135 78
283 164 330 191 47 28 86 51 87 52 2 2 -58 92 -133 201 l-137 197 17 36 c10
19 21 31 25 26 4 -5 72 -102 150 -216 l142 -208 40 23 39 22 0 545 c0 534 -1
544 -19 515 -10 -16 -94 -169 -186 -340 -92 -170 -169 -311 -170 -313 -2 -2
-13 11 -24 27 l-22 31 208 377 208 378 3 785 2 785 -511 298 c-281 164 -515
295 -519 290 -4 -4 -141 -255 -305 -558 -164 -302 -301 -554 -305 -558 -4 -5
-17 5 -29 22 l-22 31 301 552 c242 443 298 554 288 563 -18 16 -1031 605
-1042 606 -5 0 -75 -139 -155 -310 l-145 -310 -22 30 -22 31 42 91 c24 51 87
186 141 300 53 115 96 209 94 211 -11 8 -128 76 -155 89 -31 16 -32 16 -140
-46z m436 -1267 l371 -540 -18 -34 -18 -34 -255 372 c-140 204 -307 447 -371
541 l-116 170 15 33 c9 17 17 32 18 32 1 0 170 -243 374 -540z m-420 468 c0
-3 -122 -267 -271 -585 -149 -318 -384 -819 -521 -1113 -138 -294 -257 -547
-264 -563 l-15 -27 -23 27 -23 26 80 171 c77 166 516 1104 819 1751 83 176
157 333 165 349 l15 29 19 -29 c10 -16 19 -32 19 -36z m742 -1259 c-299 -558
-1059 -1938 -1067 -1936 -5 2 -16 15 -24 28 -13 24 10 70 545 1051 l559 1025
22 -31 21 -31 -56 -106z m170 76 c30 -44 301 -439 602 -878 l547 -797 -18 -30
c-9 -17 -20 -30 -23 -30 -3 1 -117 166 -255 367 -137 202 -375 549 -528 772
-153 223 -312 456 -354 518 l-75 111 18 31 c10 17 21 27 25 23 3 -4 31 -43 61
-87z m-1628 -1550 c185 -225 336 -415 336 -421 0 -7 -8 -21 -17 -33 -18 -21
-22 -16 -318 345 -165 201 -319 389 -342 418 -40 51 -41 52 -27 86 9 20 18 30
24 24 5 -5 160 -193 344 -419z"/>
</g>
</svg>
